<svg width="509" height="96" viewBox="0 0 509 96" fill="none" xmlns="http://www.w3.org/2000/svg">
<path d="M0.320001 94V0.559998H17.856V94H0.320001ZM66.317 95.536C59.661 95.536 53.9437 94.2133 49.165 91.568C44.3863 88.9227 40.717 85.3813 38.157 80.944C35.6823 76.5067 34.445 71.6 34.445 66.224V28.72H51.981V66.224C51.981 68.8693 52.621 71.3013 53.901 73.52C55.181 75.6533 56.8877 77.36 59.021 78.64C61.2397 79.92 63.6717 80.56 66.317 80.56C68.9623 80.56 71.3517 79.92 73.485 78.64C75.7037 77.36 77.453 75.6533 78.733 73.52C80.013 71.3013 80.653 68.8693 80.653 66.224V28.72H98.189V66.224C98.189 71.6 96.909 76.5067 94.349 80.944C91.8743 85.3813 88.2477 88.9227 83.469 91.568C78.7757 94.2133 73.0583 95.536 66.317 95.536ZM114.82 94V55.216C114.82 50.096 116.057 45.4027 118.532 41.136C121.007 36.8693 124.548 33.4987 129.156 31.024C133.849 28.464 139.481 27.184 146.052 27.184C149.209 27.184 152.111 27.568 154.756 28.336C157.487 29.0187 160.004 30.0427 162.308 31.408C164.612 32.7733 166.617 34.3947 168.324 36.272H168.452C170.244 34.3947 172.292 32.7733 174.596 31.408C176.9 30.0427 179.417 29.0187 182.148 28.336C184.879 27.568 187.823 27.184 190.98 27.184C197.551 27.184 203.14 28.464 207.748 31.024C212.441 33.4987 216.025 36.8693 218.5 41.136C220.975 45.4027 222.212 50.096 222.212 55.216V94H204.676V55.216C204.676 52.8267 204.036 50.6507 202.756 48.688C201.561 46.7253 199.94 45.1467 197.892 43.952C195.844 42.7573 193.54 42.16 190.98 42.16C188.505 42.16 186.201 42.7573 184.068 43.952C182.02 45.1467 180.356 46.7253 179.076 48.688C177.881 50.6507 177.284 52.8267 177.284 55.216V94H159.748V55.216C159.748 52.8267 159.108 50.6507 157.828 48.688C156.633 46.7253 155.012 45.1467 152.964 43.952C150.916 42.7573 148.612 42.16 146.052 42.16C143.577 42.16 141.273 42.7573 139.14 43.952C137.092 45.1467 135.428 46.7253 134.148 48.688C132.953 50.6507 132.356 52.8267 132.356 55.216V94H114.82ZM238.82 94V55.216C238.82 50.096 240.057 45.4027 242.532 41.136C245.007 36.8693 248.548 33.4987 253.156 31.024C257.849 28.464 263.481 27.184 270.052 27.184C273.209 27.184 276.111 27.568 278.756 28.336C281.487 29.0187 284.004 30.0427 286.308 31.408C288.612 32.7733 290.617 34.3947 292.324 36.272H292.452C294.244 34.3947 296.292 32.7733 298.596 31.408C300.9 30.0427 303.417 29.0187 306.148 28.336C308.879 27.568 311.823 27.184 314.98 27.184C321.551 27.184 327.14 28.464 331.748 31.024C336.441 33.4987 340.025 36.8693 342.5 41.136C344.975 45.4027 346.212 50.096 346.212 55.216V94H328.676V55.216C328.676 52.8267 328.036 50.6507 326.756 48.688C325.561 46.7253 323.94 45.1467 321.892 43.952C319.844 42.7573 317.54 42.16 314.98 42.16C312.505 42.16 310.201 42.7573 308.068 43.952C306.02 45.1467 304.356 46.7253 303.076 48.688C301.881 50.6507 301.284 52.8267 301.284 55.216V94H283.748V55.216C283.748 52.8267 283.108 50.6507 281.828 48.688C280.633 46.7253 279.012 45.1467 276.964 43.952C274.916 42.7573 272.612 42.16 270.052 42.16C267.577 42.16 265.273 42.7573 263.14 43.952C261.092 45.1467 259.428 46.7253 258.148 48.688C256.953 50.6507 256.356 52.8267 256.356 55.216V94H238.82ZM388.548 95.536C382.575 95.536 377.369 94 372.932 90.928C368.495 87.856 365.039 83.76 362.564 78.64C360.175 73.4347 358.98 67.7173 358.98 61.488C358.98 55.088 360.345 49.2853 363.076 44.08C365.892 38.8747 369.903 34.7787 375.108 31.792C380.313 28.72 386.543 27.184 393.796 27.184C401.135 27.184 407.321 28.72 412.356 31.792C417.391 34.864 421.231 39.0027 423.876 44.208C426.521 49.4133 427.844 55.1733 427.844 61.488V94H410.308V83.12H410.052C408.772 85.424 407.151 87.5147 405.188 89.392C403.311 91.2693 401.007 92.7627 398.276 93.872C395.545 94.9813 392.303 95.536 388.548 95.536ZM393.54 80.56C396.953 80.56 399.897 79.7067 402.372 78C404.847 76.2933 406.724 73.9893 408.004 71.088C409.369 68.1013 410.052 64.816 410.052 61.232C410.052 57.648 409.369 54.448 408.004 51.632C406.724 48.7307 404.847 46.4267 402.372 44.72C399.897 43.0133 396.953 42.16 393.54 42.16C390.041 42.16 387.012 43.0133 384.452 44.72C381.977 46.4267 380.057 48.7307 378.692 51.632C377.412 54.448 376.772 57.648 376.772 61.232C376.772 64.816 377.412 68.1013 378.692 71.088C380.057 73.9893 381.977 76.2933 384.452 78C387.012 79.7067 390.041 80.56 393.54 80.56ZM444.445 94V56.496C444.445 51.12 445.682 46.2133 448.157 41.776C450.717 37.3387 454.386 33.7973 459.165 31.152C463.944 28.5067 469.661 27.184 476.317 27.184C483.058 27.184 488.776 28.5067 493.469 31.152C498.248 33.7973 501.874 37.3387 504.349 41.776C506.909 46.2133 508.189 51.12 508.189 56.496V94H490.653V56.496C490.653 53.8507 490.013 51.4613 488.733 49.328C487.453 47.1093 485.704 45.36 483.485 44.08C481.352 42.8 478.962 42.16 476.317 42.16C473.672 42.16 471.24 42.8 469.021 44.08C466.888 45.36 465.181 47.1093 463.901 49.328C462.621 51.4613 461.981 53.8507 461.981 56.496V94H444.445Z" fill="black"/>
</svg>
